HIERARCHY
ROOT Hips
{
	OFFSET	0.00	0.00	0.00
	CHANNELS 6 Xposition Yposition Zposition Zrotation Xrotation Yrotation
	JOINT LeftUpLeg
	{
		OFFSET	 0.126116	-0.014019	-0.065224
		CHANNELS 3 Zrotation Xrotation Yrotation
		JOINT LeftLeg
		{
			OFFSET	 0.000000	 0.000000	 0.569914
			CHANNELS 3 Zrotation Xrotation Yrotation
			JOINT LeftFoot
			{
				OFFSET	 0.000000	 0.000000	 0.544423
				CHANNELS 3 Zrotation Xrotation Yrotation
				JOINT LeftToeBase
				{
					OFFSET	 0.000000	 0.000000	 0.207117
					CHANNELS 3 Zrotation Xrotation Yrotation
					End Site
					{
						OFFSET	 0.000000	 0.000000	 0.207117
					}
				}
			}
		}
	}
	JOINT RightUpLeg
	{
		OFFSET	-0.124023	-0.008373	-0.065224
		CHANNELS 3 Zrotation Xrotation Yrotation
		JOINT RightLeg
		{
			OFFSET	 0.000000	 0.000000	 0.570047
			CHANNELS 3 Zrotation Xrotation Yrotation
			JOINT RightFoot
			{
				OFFSET	 0.000000	 0.000000	 0.544354
				CHANNELS 3 Zrotation Xrotation Yrotation
				JOINT RightToeBase
				{
					OFFSET	 0.000000	 0.000000	 0.207540
					CHANNELS 3 Zrotation Xrotation Yrotation
					End Site
					{
						OFFSET	 0.000000	 0.000000	 0.207540
					}
				}
			}
		}
	}
	JOINT Spine
	{
		OFFSET	 0.000184	-0.007763	 0.117403
		CHANNELS 3 Zrotation Xrotation Yrotation
		JOINT Spine1
		{
			OFFSET	 0.000000	 0.000000	 0.137269
			CHANNELS 3 Zrotation Xrotation Yrotation
			JOINT Spine2
			{
				OFFSET	 0.000000	 0.000000	 0.156879
				CHANNELS 3 Zrotation Xrotation Yrotation
				JOINT LeftShoulder
				{
					OFFSET	 0.080501	-0.002496	 0.160144
					CHANNELS 3 Zrotation Xrotation Yrotation
					JOINT LeftArm
					{
						OFFSET	 0.000000	 0.000000	 0.164363
						CHANNELS 3 Zrotation Xrotation Yrotation
						JOINT LeftForeArm
						{
							OFFSET	 0.000000	 0.000000	 0.364576
							CHANNELS 3 Zrotation Xrotation Yrotation
							JOINT LeftHand
							{
								OFFSET	 0.000000	 0.000000	 0.360812
								CHANNELS 3 Zrotation Xrotation Yrotation
								JOINT LeftHandIndex1
								{
									OFFSET	 0.000000	 0.000000	 0.086006
									CHANNELS 3 Zrotation Xrotation Yrotation
									JOINT LeftHandIndex2
									{
										OFFSET	 0.000000	 0.000000	 0.047236
										CHANNELS 3 Zrotation Xrotation Yrotation
										JOINT LeftHandIndex3
										{
											OFFSET	-0.004284	-0.000551	 0.038166
											CHANNELS 3 Zrotation Xrotation Yrotation
											End Site
											{
												OFFSET	-0.004284	-0.000551	 0.038166
											}
										}
									}
								}
							}
						}
					}
				}
				JOINT Neck
				{
					OFFSET	 0.000000	 0.000000	 0.176489
					CHANNELS 3 Zrotation Xrotation Yrotation
					JOINT Head
					{
						OFFSET	 0.000000	-0.001747	 0.077940
						CHANNELS 3 Zrotation Xrotation Yrotation
						End Site
						{
							OFFSET	 0.000000	-0.001747	 0.077940
						}
					}
				}
				JOINT RightShoulder
				{
					OFFSET	-0.080363	 0.000306	 0.159706
					CHANNELS 3 Zrotation Xrotation Yrotation
					JOINT RightArm
					{
						OFFSET	 0.000000	 0.000000	 0.164196
						CHANNELS 3 Zrotation Xrotation Yrotation
						JOINT RightForeArm
						{
							OFFSET	 0.000000	 0.000000	 0.365611
							CHANNELS 3 Zrotation Xrotation Yrotation
							JOINT RightHand
							{
								OFFSET	 0.000000	 0.000000	 0.360648
								CHANNELS 3 Zrotation Xrotation Yrotation
								JOINT RightHandIndex1
								{
									OFFSET	 0.000000	 0.000000	 0.069977
									CHANNELS 3 Zrotation Xrotation Yrotation
									JOINT RightHandIndex2
									{
										OFFSET	 0.000000	 0.000000	 0.052305
										CHANNELS 3 Zrotation Xrotation Yrotation
										JOINT RightHandIndex3
										{
											OFFSET	 0.009002	-0.000782	 0.042196
											CHANNELS 3 Zrotation Xrotation Yrotation
											End Site
											{
												OFFSET	 0.009002	-0.000782	 0.042196
											}
										}
									}
								}
							}
						}
					}
				}
			}
		}
	}
}
MOTION
Frames:    13
Frame Time: 0.03333334
 0.000462	 0.045147	 1.270436	-0.084011	 2.382044	 0.726528	 21.043140	-8.454160	 176.508400	 2.336448	-16.288530	 0.772692	-0.370262	 71.771570	 0.212873	-2.385833	 28.452750	 0.000004	-13.559930	-7.562555	-177.359200	-0.746234	-14.397840	 1.096108	 5.980399	 70.622650	 0.302734	 2.384659	 28.388700	-0.000001	-3.214837	 7.180406	-0.395548	 1.460194	-4.884283	 0.376980	-3.872333	 8.703115	 0.696776	-91.189660	 69.926830	-177.874000	-7.418905	 0.837774	-24.506820	 23.420270	-0.042020	-1.709733	-9.289196	-11.306110	-4.197251	-2.027600	 6.559038	 9.033609	-5.188889	 0.308190	 3.541030	-5.234859	 0.342567	 0.430617	 4.328594	 17.423920	-6.572021	-9.064439	-13.218650	 1.766100	 89.042230	 68.873880	 177.422600	 9.600750	 10.508740	 19.997370	-25.462980	-0.093525	 1.740603	 6.391746	-11.452770	 6.330010	 1.803333	 3.979147	-15.098590	 4.898592	 3.004813	-9.310344	 5.224449	 0.395017	 2.014677
 0.000262	 0.048640	 1.266611	-0.065379	 2.716233	 0.789641	 21.838830	-10.234180	 176.599800	 2.296112	-18.708630	 0.870689	 0.735437	 72.747280	-0.919339	-2.385833	 28.452750	 0.000004	-14.450520	-9.363355	-177.666700	-0.676567	-16.946920	 1.305277	 5.824223	 71.739260	 0.494665	 2.384659	 28.388700	-0.000001	-7.068321	 7.618583	-0.437886	 1.424091	-5.566288	 0.400726	-3.807484	 10.119840	 0.773737	-91.098570	 69.306490	-177.665100	-6.571559	 1.460501	-26.292120	 21.360250	 0.080575	-2.525982	-8.715534	-11.776340	-4.416952	-2.027600	 6.559038	 9.033609	-5.188889	 0.308190	 3.541030	-5.234859	 0.342567	 0.430617	 4.518635	 19.044760	-7.085257	-8.992705	-14.187480	 1.705866	 88.917980	 68.021250	 177.171800	 8.696650	 11.661880	 21.141310	-23.735770	 0.027019	 2.558419	 5.778919	-11.598970	 6.112636	 1.803333	 3.979147	-15.098590	 4.898592	 3.004813	-9.310344	 5.224449	 0.395017	 2.014677
-0.000113	 0.053979	 1.261236	-0.027578	 3.216742	 0.875013	 22.898150	-12.567260	 176.777600	 2.284353	-21.668120	 0.997891	 2.550691	 73.898210	-2.831195	-2.385833	 28.452750	 0.000004	-15.660100	-11.680050	-178.122500	-0.582980	-20.004310	 1.563982	 5.272075	 73.036100	 1.153964	 2.384659	 28.388700	-0.000001	-11.793480	 8.185391	-0.482711	 1.382251	-6.111244	 0.411477	-3.738336	 11.724050	 0.867344	-90.990330	 68.579250	-177.434300	-5.485045	 2.501461	-28.857440	 18.737190	 0.308648	-3.537624	-8.071537	-12.467880	-4.789712	-2.027600	 6.559038	 9.033609	-5.188889	 0.308190	 3.541030	-5.234859	 0.342567	 0.430617	 4.696612	 21.035350	-7.705635	-8.830913	-15.413230	 1.631816	 88.754090	 66.906090	 176.869500	 7.332012	 13.377260	 22.833050	-21.510050	 0.252509	 3.576856	 4.997485	-11.850760	 5.871110	 1.803333	 3.979147	-15.098590	 4.898592	 3.004813	-9.310344	 5.224449	 0.395017	 2.014677
-0.000680	 0.060382	 1.255371	 0.033498	 3.844173	 0.962462	 23.915460	-15.184480	 177.035100	 2.292157	-24.846630	 1.165992	 5.060074	 75.139280	-5.563168	-2.385833	 28.452750	 0.000004	-16.982380	-14.117510	-178.683600	-0.487212	-22.952960	 1.820327	 4.115165	 74.247700	 2.491491	 2.384659	 28.388700	-0.000001	-16.263530	 8.745041	-0.512537	 1.368079	-6.124275	 0.371416	-3.720208	 12.941570	 0.969427	-90.906120	 67.991740	-177.270900	-4.531065	 3.631114	-31.584430	 16.068700	 0.615641	-4.530457	-7.611658	-13.349140	-5.314184	-2.027600	 6.559038	 9.033609	-5.188889	 0.308190	 3.541030	-5.234859	 0.342567	 0.430617	 4.724133	 22.831520	-8.223671	-8.566920	-16.602500	 1.569315	 88.591960	 65.770520	 176.602100	 5.838430	 15.015700	 24.793930	-19.165480	 0.559141	 4.569464	 4.245854	-12.227280	 5.711821	 1.803333	 3.979147	-15.098590	 4.898592	 3.004813	-9.310344	 5.224449	 0.395017	 2.014677
-0.001259	 0.067215	 1.249639	 0.093020	 4.478525	 1.034340	 25.080850	-17.643670	 177.407400	 2.430116	-27.653370	 1.324270	 8.096894	 76.131890	-8.866856	-2.385833	 28.452760	 0.000004	-18.322410	-16.421180	-179.283700	-0.397713	-25.562490	 2.052804	 2.509543	 75.259420	 4.326394	 2.384659	 28.388700	-0.000001	-20.297770	 9.304967	-0.531424	 1.367581	-5.463721	 0.280313	-3.663505	 13.822170	 1.062968	-90.823590	 67.402050	-177.121600	-3.799889	 4.358020	-34.409670	 13.513360	 0.980611	-5.458273	-7.206734	-14.158290	-5.871608	-2.027600	 6.559038	 9.033609	-5.188889	 0.308190	 3.541030	-5.234859	 0.342567	 0.430617	 4.759654	 24.580010	-8.719581	-8.262003	-17.747430	 1.517396	 88.430900	 64.643620	 176.355000	 4.528617	 16.221530	 27.036800	-16.943460	 0.922952	 5.497904	 3.515096	-12.560570	 5.585349	 1.803333	 3.979147	-15.098590	 4.898592	 3.004813	-9.310344	 5.224449	 0.395017	 2.014677
-0.001721	 0.074001	 1.245221	 0.150015	 5.212852	 1.115796	 26.048230	-19.803760	 177.862500	 2.471664	-29.675400	 1.430824	 11.529610	 76.712520	-12.586650	-2.385833	 28.452760	 0.000004	-19.581420	-18.424050	-179.952200	-0.540424	-27.370000	 2.121080	 0.361475	 75.891290	 6.943338	 2.384659	 28.388700	-0.000001	-23.433980	 9.722434	-0.567630	 1.380725	-4.829736	 0.206811	-3.658777	 14.344000	 1.107242	-90.827600	 66.692250	-177.250600	-3.117960	 4.670584	-36.610890	 10.771370	 1.343208	-6.210287	-7.433846	-14.792320	-6.594112	-2.027600	 6.559038	 9.033609	-5.188889	 0.308190	 3.541030	-5.234859	 0.342567	 0.430617	 4.571503	 25.330380	-8.768634	-8.013950	-18.218440	 1.394187	 88.408660	 63.588270	 176.467100	 3.050815	 16.759320	 28.797460	-14.721980	 1.283002	 6.255102	 2.975992	-12.752180	 5.762830	 1.803333	 3.979147	-15.098590	 4.898592	 3.004813	-9.310344	 5.224449	 0.395017	 2.014677
-0.002316	 0.082567	 1.240067	 0.214925	 6.113006	 1.205349	 27.236170	-22.286820	 178.500000	 2.523418	-31.836920	 1.551821	 16.079670	 77.178260	-17.540190	-2.385832	 28.452790	-0.000001	-21.121010	-20.745990	 179.170200	-0.727244	-29.329870	 2.167873	-2.702452	 76.495900	 10.614740	 2.384659	 28.388700	-0.000001	-26.796380	 10.197460	-0.602454	 1.401447	-3.543682	 0.084227	-3.614145	 14.716820	 1.151376	-90.837350	 65.841490	-177.400500	-2.479252	 4.878459	-39.443550	 7.578377	 1.822036	-7.061740	-7.749285	-15.476800	-7.471184	-2.027600	 6.559038	 9.033609	-5.188889	 0.308190	 3.541030	-5.234859	 0.342567	 0.430617	 4.345400	 26.230650	-8.819469	-7.676798	-18.778780	 1.256731	 88.388800	 62.323320	 176.594900	 1.374408	 17.214780	 31.212610	-12.151580	 1.758287	 7.110732	 2.347357	-12.938020	 5.997242	 1.803333	 3.979147	-15.098590	 4.898592	 3.004813	-9.310344	 5.224449	 0.395017	 2.014677
-0.002904	 0.091535	 1.234863	 0.342313	 7.143706	 1.249321	 28.379990	-24.761090	 179.318800	 2.537675	-33.808830	 1.644804	 21.159270	 77.386070	-23.055830	-2.385832	 28.452790	-0.000001	-22.681990	-23.143040	 178.221600	-0.815306	-31.229660	 2.248611	-6.538577	 77.021350	 15.039760	 2.384659	 28.388700	-0.000001	-29.677370	 10.578280	-0.625824	 1.406825	-2.437425	 0.003779	-3.532629	 14.939000	 1.192779	-91.045240	 65.313010	-178.028700	-2.032524	 5.267081	-41.401120	 4.845046	 2.322570	-7.828702	-8.105783	-15.897480	-8.321462	-2.027600	 6.559038	 9.033609	-5.188889	 0.308190	 3.541030	-5.234859	 0.342567	 0.430617	 4.093384	 26.690620	-8.809078	-7.310063	-19.082740	 1.165885	 88.571200	 61.574810	 177.121300	-0.301539	 17.920640	 33.061760	-9.849603	 2.257691	 7.879735	 1.779020	-13.115920	 6.213177	 1.803333	 3.979147	-15.098590	 4.898592	 3.004813	-9.310344	 5.224449	 0.395017	 2.014677
-0.003641	 0.100753	 1.229438	 0.513451	 8.267941	 1.265082	 29.523830	-27.220470	-179.730500	 2.535098	-35.683620	 1.722720	 26.599540	 77.407550	-28.972890	-2.385833	 28.452760	 0.000004	-24.290730	-25.587150	 177.196000	-0.848557	-33.165680	 2.354215	-11.053350	 77.532680	 20.159340	 2.384659	 28.388700	-0.000001	-32.142860	 10.906720	-0.642687	 1.392681	-1.361037	-0.043482	-3.412098	 15.031290	 1.223065	-91.385800	 64.983860	-178.963700	-1.803124	 5.608883	-42.698280	 2.396442	 2.847312	-8.532906	-8.483629	-16.163490	-9.163624	-2.027600	 6.559038	 9.033609	-5.188889	 0.308190	 3.541030	-5.234859	 0.342567	 0.430617	 3.821668	 26.876950	-8.762102	-6.907049	-19.231040	 1.103910	 88.887190	 61.145650	 177.904300	-1.951727	 18.720120	 34.659980	-7.718927	 2.782307	 8.591073	 1.243389	-13.288460	 6.423178	 1.803333	 3.979147	-15.098590	 4.898592	 3.004813	-9.310344	 5.224449	 0.395017	 2.014677
-0.004461	 0.108504	 1.224775	 0.654865	 9.266174	 1.268669	 30.546610	-29.233680	-178.861300	 2.547951	-37.182660	 1.792630	 31.410670	 77.334140	-34.236120	-2.385833	 28.452760	 0.000004	-25.690770	-27.624820	 176.278600	-0.884402	-34.822770	 2.436729	-15.435660	 77.985260	 25.094450	 2.384659	 28.388700	-0.000001	-33.926730	 11.173960	-0.642263	 1.370160	-0.182194	-0.075392	-3.265908	 14.957980	 1.245052	-91.699810	 64.768970	-179.799300	-1.839902	 5.715584	-43.612380	 0.463863	 3.316340	-9.098667	-8.772305	-16.356030	-9.829361	-2.027600	 6.559038	 9.033609	-5.188889	 0.308190	 3.541030	-5.234859	 0.342567	 0.430617	 3.591835	 26.902110	-8.745172	-6.527511	-19.283150	 1.053202	 89.180850	 60.799690	 178.608500	-3.264633	 19.291000	 36.170270	-5.914953	 3.252434	 9.162845	 0.857969	-13.439490	 6.612833	 1.803333	 3.979147	-15.098590	 4.898592	 3.004813	-9.310344	 5.224449	 0.395017	 2.014677
-0.005531	 0.117197	 1.221796	 0.778962	 10.610520	 1.224790	 31.149450	-31.194290	-177.825100	 2.580413	-38.039960	 1.847804	 35.984620	 76.938100	-39.342060	-2.385832	 28.452790	-0.000001	-26.570130	-29.732280	 175.353400	-0.957101	-35.990330	 2.464639	-20.702170	 78.181190	 30.994300	 2.384659	 28.388700	-0.000001	-35.667470	 11.485540	-0.565462	 1.334517	 1.278214	-0.120097	-3.001408	 14.666110	 1.367368	-92.167810	 64.944340	 178.962000	-2.141618	 6.171828	-44.193740	-1.097380	 3.892655	-9.730186	-8.810448	-16.516340	-10.248620	-2.027600	 6.559038	 9.033609	-5.188889	 0.308190	 3.541030	-5.234859	 0.342567	 0.430617	 3.345260	 26.062440	-8.889174	-6.032510	-18.848370	 0.975402	 89.640300	 60.530200	 179.674800	-4.465202	 19.656100	 33.453050	-4.202749	 4.415848	 18.587560	 0.823667	-13.762210	 6.827367	 1.803333	 3.979147	-15.098590	 4.898592	 3.004813	-9.310344	 5.224449	 0.395017	 2.014677
-0.006620	 0.124527	 1.221445	 0.887006	 11.905030	 1.184795	 31.044000	-32.635660	-177.016000	 2.591465	-38.049940	 1.855034	 38.267170	 76.315410	-42.030400	-2.385832	 28.452790	-0.000001	-26.722900	-31.316120	 174.667000	-1.089662	-36.306060	 2.404528	-24.199510	 77.993540	 34.997830	 2.384659	 28.388700	-0.000001	-36.846510	 11.735120	-0.489703	 1.298590	 2.866580	-0.162864	-2.723064	 14.271220	 1.467059	-92.600460	 65.112270	 177.798500	-2.592555	 6.402692	-44.696660	-2.470452	 4.438607	-10.267630	-8.843249	-16.659810	-10.642930	-2.027600	 6.559038	 9.033609	-5.188889	 0.308190	 3.541030	-5.234859	 0.342567	 0.430617	 3.114298	 25.278290	-9.030728	-5.539652	-18.452820	 0.904128	 90.075500	 60.281690	-179.332300	-5.509109	 19.863280	 31.590140	-2.925640	 5.938677	 26.480210	 0.801212	-14.038980	 7.033916	 1.803333	 3.979147	-15.098590	 4.898592	 3.004813	-9.310344	 5.224449	 0.395017	 2.014677
-0.008453	 0.133756	 1.221364	 1.370138	 13.858190	 1.217486	 30.540740	-34.903590	-175.950700	 2.941195	-37.972260	 2.067414	 39.723790	 75.247970	-44.307900	-2.385832	 28.452790	-0.000001	-27.457690	-33.424850	 173.373400	-0.897378	-36.412440	 2.525113	-28.314680	 77.277110	 39.527900	 2.384659	 28.388700	-0.000001	-37.709610	 11.704090	-0.447440	 1.090250	 3.809012	-0.279546	-2.495824	 13.680280	 1.340964	-92.996720	 65.204310	 176.726000	-2.731051	 6.511364	-44.989060	-3.778641	 4.978448	-10.753590	-8.810306	-16.539040	-10.923700	-2.027600	 6.559038	 9.033609	-5.188889	 0.308190	 3.541030	-5.234859	 0.342567	 0.430617	 2.924244	 24.865620	-8.844020	-5.081336	-18.350340	 0.794711	 90.523320	 60.360710	-178.309300	-6.650005	 20.208390	 30.995410	-1.764087	 7.489090	 31.438050	 0.832564	-14.109450	 7.331841	 1.803333	 3.979147	-15.098590	 4.898592	 3.004813	-9.310344	 5.224449	 0.395017	 2.014677
